<?xml version="1.0" standalone="no"?>
<!DOCTYPE svg PUBLIC "-//W3C//DTD SVG 20010904//EN"
 "http://www.w3.org/TR/2001/REC-SVG-20010904/DTD/svg10.dtd">
<svg version="1.0" xmlns="http://www.w3.org/2000/svg"
 width="259.000000pt" height="259.000000pt" viewBox="0 0 259.000000 259.000000"
 preserveAspectRatio="xMidYMid meet">
<metadata>
Created by potrace 1.11, written by Peter Selinger 2001-2013
</metadata>
<g transform="translate(0.000000,259.000000) scale(0.100000,-0.100000)"
fill="#000000" stroke="none">
<path d="M0 1300 l0 -1290 1290 0 1290 0 0 1290 0 1290 -1290 0 -1290 0 0
-1290z m338 1266 c15 -8 40 -28 56 -45 35 -37 56 -27 56 25 0 29 4 34 23 34
12 0 39 -11 58 -24 l36 -25 11 25 c11 23 15 24 112 24 60 0 100 -4 100 -10 0
-5 14 -10 30 -10 23 0 30 -4 30 -20 0 -16 7 -20 34 -20 48 0 66 9 77 36 8 24
9 24 178 24 l169 0 11 -32 c7 -18 14 -58 18 -89 5 -52 4 -58 -18 -72 -13 -9
-190 -103 -394 -211 -351 -185 -370 -194 -373 -171 -3 24 -14 28 -134 50 -37
7 -38 7 -38 -24 0 -28 -3 -31 -30 -31 -29 0 -30 -2 -30 -45 0 -43 -1 -45 -30
-45 -16 0 -30 -5 -30 -11 0 -7 11 -9 30 -5 22 4 30 2 30 -9 0 -10 -10 -15 -30
-15 -24 0 -30 -4 -30 -22 0 -19 -21 -34 -119 -85 -66 -35 -122 -63 -125 -63
-3 0 -6 45 -6 101 0 64 4 98 10 94 6 -4 10 15 10 49 l0 56 33 2 c17 0 44 0 60
-1 21 -2 27 2 27 18 0 17 -6 21 -30 21 -28 0 -30 2 -30 40 0 38 -2 40 -30 40
-23 0 -30 4 -30 20 0 11 -4 20 -10 20 -6 0 -10 42 -10 105 0 63 4 105 10 105
6 0 10 -9 10 -20 0 -17 7 -20 43 -20 46 0 69 16 81 58 5 13 15 22 27 22 13 0
19 7 19 24 0 34 10 56 25 56 7 0 19 20 26 45 15 50 36 58 87 31z m2017 -6 c4
-13 15 -20 31 -20 17 0 24 -5 24 -20 0 -16 7 -20 30 -20 25 0 30 -4 30 -25 0
-22 4 -25 36 -25 27 0 37 -5 41 -20 3 -11 9 -20 14 -20 5 0 9 -241 9 -555 0
-548 0 -555 -20 -555 -17 0 -20 -7 -20 -40 0 -38 -2 -40 -30 -40 -23 0 -30 -4
-30 -20 0 -16 -7 -20 -30 -20 -23 0 -30 4 -30 20 0 16 -7 20 -30 20 -28 0 -30
2 -30 40 0 38 -2 40 -30 40 -28 0 -30 2 -30 40 0 38 -2 40 -30 40 -23 0 -30 4
-30 20 0 16 -7 20 -30 20 -29 0 -30 2 -30 45 0 43 -1 45 -30 45 -23 0 -30 4
-30 20 0 15 -7 20 -25 20 -22 0 -25 4 -25 40 0 38 -2 40 -30 40 -23 0 -30 4
-30 20 0 16 -7 20 -30 20 -28 0 -30 2 -30 40 0 38 -2 40 -30 40 -29 0 -30 2
-30 45 0 43 -1 45 -30 45 -23 0 -30 4 -30 20 0 16 -7 20 -30 20 -28 0 -30 2
-30 40 0 38 -2 40 -30 40 -28 0 -30 2 -30 40 0 38 -2 40 -30 40 -23 0 -30 4
-30 20 0 16 -7 20 -30 20 -29 0 -30 2 -30 45 0 41 -2 45 -25 45 -23 0 -25 3
-25 48 0 51 -12 72 -42 72 -14 0 -18 8 -18 40 0 38 -2 40 -30 40 -27 0 -30 3
-30 33 0 31 5 34 138 104 l137 72 332 0 c323 1 332 0 338 -19z m-1125 -423 c0
-7 10 -17 23 -22 12 -6 28 -24 36 -42 8 -19 23 -33 35 -35 16 -2 22 -11 24
-40 3 -36 2 -38 -27 -38 -24 0 -31 -4 -31 -20 0 -16 -7 -20 -30 -20 -23 0 -30
-4 -30 -20 0 -16 -7 -20 -30 -20 -23 0 -30 -4 -30 -20 0 -16 -7 -20 -30 -20
-29 0 -30 -2 -30 -45 0 -43 1 -45 30 -45 l30 0 0 -60 0 -60 30 0 c28 0 30 -2
30 -40 0 -38 2 -40 30 -40 23 0 30 -4 30 -20 0 -16 7 -20 30 -20 23 0 30 -4
30 -20 0 -12 -10 -24 -24 -30 -13 -5 -30 -22 -38 -37 -7 -15 -23 -32 -36 -38
-12 -5 -22 -15 -22 -22 0 -25 -18 -12 -119 92 -99 100 -103 106 -96 137 20 91
23 117 18 160 -5 44 -3 50 35 93 51 59 82 138 82 213 0 53 2 58 33 78 33 22
47 22 47 1z m-806 -423 c54 -19 50 -30 -11 -40 -43 -7 -43 -6 -43 25 0 17 1
31 3 31 2 0 25 -7 51 -16z m602 -254 c17 0 24 -5 24 -20 0 -16 7 -20 30 -20
23 0 30 -4 30 -20 0 -16 7 -20 30 -20 26 0 30 -4 30 -28 0 -33 -31 -52 -85
-52 -23 0 -35 -5 -35 -14 0 -20 -33 -26 -154 -26 l-109 0 20 23 c30 32 43 62
43 96 0 24 8 36 45 61 25 17 58 50 73 73 l27 41 3 -47 c3 -42 6 -47 28 -47z
m-527 -14 c6 -8 25 -19 41 -26 23 -10 30 -19 30 -41 0 -15 4 -39 10 -53 9 -25
8 -26 -25 -26 -34 0 -35 1 -35 40 0 36 -2 40 -25 40 -22 0 -25 4 -25 40 0 42
9 50 29 26z m1471 -422 c0 -42 1 -44 30 -44 23 0 30 -4 30 -20 0 -16 7 -20 30
-20 23 0 30 -5 30 -19 0 -12 -8 -21 -22 -23 -12 -2 -29 -16 -38 -33 -9 -16
-26 -34 -37 -40 -12 -5 -24 -17 -26 -27 -6 -20 -43 -24 -50 -5 -3 6 -6 2 -6
-10 -1 -28 -29 -43 -80 -43 -28 0 -41 -4 -41 -14 0 -19 -22 -26 -77 -26 l-46
0 5 64 c6 73 58 199 65 159 3 -17 11 -23 29 -23 17 0 24 -5 24 -20 0 -16 7
-20 30 -20 23 0 30 -4 30 -20 0 -14 7 -20 22 -20 19 0 10 13 -50 73 l-72 73
32 31 c53 51 112 80 153 75 34 -4 35 -5 35 -48z m-1136 -420 c36 -5 46 -11 46
-25 0 -14 7 -19 30 -19 23 0 30 -4 30 -20 0 -16 7 -20 30 -20 22 0 30 -5 30
-18 0 -15 9 -19 55 -20 40 -1 55 2 55 12 0 17 31 26 93 26 27 0 57 5 68 10 17
10 19 7 19 -20 l0 -31 30 16 30 16 0 -41 0 -41 30 16 30 16 0 -36 c0 -32 2
-35 30 -35 23 0 30 -4 30 -20 0 -16 7 -20 30 -20 28 0 30 -3 30 -35 0 -32 2
-35 19 -25 29 15 31 13 31 -25 0 -32 2 -35 30 -35 28 0 30 -2 30 -40 0 -38 2
-40 30 -40 29 0 30 -2 30 -45 0 -43 1 -45 30 -45 23 0 30 -4 30 -20 0 -20 -7
-20 -530 -20 -464 0 -530 2 -530 15 0 10 -10 15 -30 15 -25 0 -30 4 -30 25 0
14 -6 25 -14 25 -7 0 -34 3 -60 6 l-46 7 0 -47 0 -46 -255 0 -255 0 0 250 c0
243 1 250 20 250 14 0 20 7 20 21 0 18 5 20 48 15 26 -2 53 -5 60 -5 6 -1 12
-8 12 -16 0 -10 10 -15 30 -15 23 0 30 -4 30 -20 0 -16 7 -20 30 -20 l30 0 0
-105 0 -105 30 0 c23 0 30 -4 30 -20 0 -18 7 -20 60 -20 53 0 60 -2 60 -20 0
-17 7 -20 39 -20 71 0 131 12 131 26 0 9 11 14 30 14 23 0 30 4 30 20 0 16 7
20 30 20 28 0 30 2 30 40 0 38 2 40 30 40 l30 0 0 70 0 70 -30 0 -30 0 0 60
c0 66 -3 64 74 54z"/>
<path d="M500 2464 c-55 -11 -117 -36 -160 -64 -25 -16 -39 -30 -32 -30 8 0
12 -16 12 -45 0 -43 1 -45 30 -45 28 0 30 -2 30 -40 0 -38 2 -40 30 -40 23 0
30 -4 30 -20 0 -16 7 -20 34 -20 50 0 65 9 81 46 9 23 21 34 34 34 17 0 21 6
21 34 0 22 7 40 18 48 11 7 24 23 30 35 17 31 15 90 -2 96 -23 9 -128 16 -156
11z"/>
<path d="M743 2432 c-9 -6 -4 -13 17 -26 l30 -17 0 25 c0 27 -21 34 -47 18z"/>
<path d="M867 2306 c37 -52 38 -53 41 -25 2 16 9 29 15 29 22 0 -18 20 -41 20
-12 0 -25 7 -28 15 -4 8 -10 15 -15 15 -6 0 7 -24 28 -54z"/>
<path d="M170 2075 l0 -35 64 0 c48 0 69 4 82 17 16 17 14 18 -37 28 -30 6
-66 15 -81 18 -27 7 -28 6 -28 -28z"/>
<path d="M348 2073 c6 -2 18 -2 25 0 6 3 1 5 -13 5 -14 0 -19 -2 -12 -5z"/>
<path d="M170 1871 c0 -5 7 -12 16 -15 22 -9 24 -8 24 9 0 8 -9 15 -20 15 -11
0 -20 -4 -20 -9z"/>
</g>
</svg>
